<?xml version="1.0" standalone="no"?><!DOCTYPE svg PUBLIC "-//W3C//DTD SVG 1.1//EN" "http://www.w3.org/Graphics/SVG/1.1/DTD/svg11.dtd"><svg t="1545986267857" class="icon" style="" viewBox="0 0 1024 1024" version="1.1" xmlns="http://www.w3.org/2000/svg" p-id="12510" xmlns:xlink="http://www.w3.org/1999/xlink" width="32" height="32"><defs><style type="text/css"></style></defs><path d="M746.666667 682.666667c-23.466667 0-42.666667 8.533333-59.733334 23.466666l-326.4-202.666666c0-4.266667 2.133333-8.533333 2.133334-12.8v-8.533334l320-168.533333c14.933333 17.066667 38.4 27.733333 64 27.733333 46.933333 0 85.333333-38.4 85.333333-85.333333s-38.4-85.333333-85.333333-85.333333-85.333333 38.4-85.333334 85.333333c0 6.4 0 12.8 2.133334 19.2l-317.866667 166.4c-14.933333-21.333333-40.533333-36.266667-70.4-36.266667-46.933333 0-85.333333 38.4-85.333333 85.333334s38.4 85.333333 85.333333 85.333333c27.733333 0 51.2-12.8 66.133333-32l322.133334 198.4c0 8.533333-2.133333 17.066667-2.133334 25.6 0 46.933333 38.4 85.333333 85.333334 85.333333s85.333333-38.4 85.333333-85.333333-38.4-85.333333-85.333333-85.333333z" p-id="12511" fill="#ffffff"></path></svg>