<?xml version="1.0" standalone="no"?><!DOCTYPE svg PUBLIC "-//W3C//DTD SVG 1.1//EN" "http://www.w3.org/Graphics/SVG/1.1/DTD/svg11.dtd"><svg t="1546053906121" class="icon" style="" viewBox="0 0 1024 1024" version="1.1" xmlns="http://www.w3.org/2000/svg" p-id="5195" xmlns:xlink="http://www.w3.org/1999/xlink" width="28" height="28"><defs><style type="text/css"></style></defs><path d="M876.93312 545.80224l34.24256-269.9776-245.61664-93.21472L370.91328 323.33824 114.20672 214.92736l35.84 282.46016-0.67584 5.62176-0.50176-0.07168-4.07552 26.20416 1.46432 0.21504-30.6176 257.20832 109.6192 20.55168-0.02048 0.16384 5.05856 0.78848 158.09536 29.65504 278.20032-52.992 245.52448 56.65792L876.93312 545.80224zM666.74688 211.43552l215.48032 81.75616L867.24608 411.2384l-216.86272-54.85568 13.34272-143.50336L666.74688 211.43552zM639.17056 497.92l-1.00352-9.96352 11.264-121.27232 215.92064 54.6304 1.25952-4.94592-13.63968 107.3664-209.22368-26.50112L639.17056 497.92zM612.89472 501.88288 482.4064 521.56416c-7.02464-19.88608-19.9168-36.95616-36.6592-49.17248 17.08032-27.26912 32.50176-80.06656 36.38272-93.99296l141.2608-18.2272-11.85792 127.6928L612.89472 501.88288zM385.14688 638.44352c-45.59872 0-82.69824-37.09952-82.69824-82.70848s37.09952-82.70848 82.69824-82.70848c45.6192 0 82.71872 37.09952 82.71872 82.70848S430.76608 638.44352 385.14688 638.44352zM635.8528 226.19136l-11.47904 123.5968-0.18432-0.04096-150.13888 19.37408-0.90112 3.30752c-0.18432 0.7168-17.60256 65.0752-35.96288 94.35136-11.8784-6.98368-25.2416-11.66336-39.51616-13.40416l-12.17536-107.6224L635.8528 226.19136zM371.00544 453.632c-39.65952 5.46816-72.20224 33.47456-84.1216 70.68672L175.60576 507.0848l1.1776-9.78944-11.85792-93.40928c36.88448-2.44736 64.54272-14.44864 82.2784-35.86048 15.98464-19.28192 20.5824-42.0864 21.46304-59.0848l90.27584 38.12352L371.00544 453.632zM146.3296 257.28l112.1792 47.37024c-0.31744 15.64672-3.86048 38.33856-19.17952 56.84224-15.98464 19.27168-41.4208 30.0544-75.70432 32.21504L146.3296 257.28zM144.88576 765.0816l27.5968-231.64928 109.74208 17.00864c-0.08192 1.76128-0.256 3.50208-0.256 5.29408 0 24.13568 8.37632 46.30528 22.3232 63.90784l-56.99584 45.7728-17.96096 115.49696L144.88576 765.0816zM239.39072 782.7968l17.39776-111.89248 54.24128-43.55072c16.64 17.21344 39.15776 28.68224 64.31744 31.05792l-15.4624 146.98496L239.39072 782.7968zM388.37248 810.74176 386.048 810.30144l16.09728-152.90368c48.82432-8.1408 86.20032-50.56512 86.20032-101.67296 0-2.7648-0.2048-5.46816-0.41984-8.18176l127.55968-19.23072 10.63936 108.8c-55.9616 2.62144-97.78176 19.83488-124.11904 51.6096-30.69952 37.07904-32.14336 83.31264-30.55616 106.17856L388.37248 810.74176zM481.66912 792.96512c-1.23904-21.69856 0.5632-64.28672 28.24192-97.69984 24.48384-29.57312 64-45.53728 117.1968-47.94368l11.0592 113.07008 26.39872-2.59072-22.82496-233.43104 2.304-0.34816 205.68064 26.05056 0.50176-4.01408 31.0784 261.00736-132.99712-30.68928 5.09952-0.53248-16.896-163.77856 85.82144 10.1888 1.19808-10.15808-98.51904-11.71456 18.04288 174.76608-75.93984-17.52064L481.66912 792.96512zM435.65056 555.73504c0 27.89376-22.59968 50.50368-50.50368 50.50368-27.88352 0-50.50368-22.60992-50.50368-50.50368s22.62016-50.50368 50.50368-50.50368C413.05088 505.23136 435.65056 527.84128 435.65056 555.73504z" p-id="5196" fill="#ffffff"></path></svg>