<?xml version="1.0" standalone="no"?><!DOCTYPE svg PUBLIC "-//W3C//DTD SVG 1.1//EN" "http://www.w3.org/Graphics/SVG/1.1/DTD/svg11.dtd"><svg t="1546053974351" class="icon" style="" viewBox="0 0 1024 1024" version="1.1" xmlns="http://www.w3.org/2000/svg" p-id="6787" xmlns:xlink="http://www.w3.org/1999/xlink" width="22" height="22"><defs><style type="text/css"></style></defs><path d="M435.03356 8.2l-356.6 429c-11.4 13.7-1.7 34.6 16.2 34.6h356.6c11.6 0 21.1-9.4 21.1-21.1v-429c0-19.8-24.7-28.7-37.3-13.5zM451.23356 552.3H21.13356C1.53356 552.3-7.46644 576.7 7.43356 589.4L437.53356 956c13.7 11.7 34.8 1.9 34.8-16V573.3c0-11.6-9.5-21-21.1-21zM552.83356 573.3v429c0 19.7 24.7 28.7 37.3 13.5l356.6-429c11.4-13.7 1.7-34.6-16.2-34.6H573.93356c-11.7 0.1-21.1 9.5-21.1 21.1zM573.93356 471.7h429c19.7 0 28.7-24.7 13.5-37.3l-429-356.6c-13.7-11.4-34.6-1.7-34.6 16.2v356.6c0 11.7 9.4 21.1 21.1 21.1z" p-id="6788" fill="#ffffff"></path></svg>