<?xml version="1.0" encoding="utf-8"?>
<!-- Generator: Adobe Illustrator 16.0.0, SVG Export Plug-In . SVG Version: 6.00 Build 0)  -->
<!DOCTYPE svg PUBLIC "-//W3C//DTD SVG 1.1//EN" "http://www.w3.org/Graphics/SVG/1.1/DTD/svg11.dtd">
<svg version="1.1" id="图层_1" xmlns="http://www.w3.org/2000/svg" xmlns:xlink="http://www.w3.org/1999/xlink" x="0px" y="0px"
	 width="2400px" height="1200px" viewBox="0 0 2400 1200" enable-background="new 0 0 2400 1200" xml:space="preserve">
<rect y="0.001" fill="#040000" width="2400" height="1199.999"/>
<g>
	<path fill="#12335F" d="M1976,270.25c0,0-4.625,7.5-5.125,8.625s-0.625,3.5,3.125,3.375s5-0.365,6.25,0.005
		s2.875-0.005,3.625-0.505s4.375-1.125,7,0.125s8.292,4.708,7.542,6.292s-5.166,0.417-8.583,0.417s-5,0.333-6.5,0.917
		s-2.417,2-3.5,2s-2.749-1-4.083,0.917s-3.334,4.167-4.584,4.5s-5.25-0.166-7.083,0.667s-5.416,3.5-7.333,3.667
		s-10.251-2.25-12.084,0s-2.084,3.584,0,6.417s-2.833,3.166-3.583,3.333s-4.75,3.333-5.75,4s-4.667,1.833-5.417,2
		s-9.749-0.167-15.249,1.083s-13,4.25-15.167,4.167s-15.334-2.583-18.084-3.333s-4.667-3.167-8-3s-14.666,0.083-16.916-0.167
		s-10.749,0.5-12.833-0.75s-6.584-9.083-8.334-10s-6.416-1.417-8.083-2.167s-2.751-2-4.584-2.583s-16.749-0.167-16.666-2.917
		s2.167-4.5,1.5-7s-3.583-5.583-4.25-6.75s-4.834-3.583-6.584-3.75s-7.5-2.083-8.5-3.583s-3.332-4.833-6.166-3.75
		s-3.833,3.083-5,3.667s-6.001,0.75-6.084,3.833s-0.832,6.667-3.916,7.167s-9.751-2.167-11.584-1.5s-4,5.25-4.25,6.833
		s0.666,6.167-1,6.583s-12.667-1.667-13.75,1.667s2.584,9.333,1.667,11.333s-2.916,2.833-3.083,4s0.582,3.583-1.084,4.083
		s-8.083,2.667-9.833,4.167s-4.5,2.667-6,2.667s-3.667-0.417-4.5,0.333s-3.25,3.833-4.75,3.833s-5.999-1.667-8.833-0.583
		s-8.916,5.083-8.083,9.417s4.332,3.334,5.666,4.417s3.083,4.583,2.5,5.75s-3,2.417-2.833,3.417s3.084,0.667,4.667,0.75
		s4.333,2.333,4.833,3.25s-0.083,3,2.25,4.667s7.417,1.667,9.917,3s2.667,3,3.5,4.167s2.916,1.833,3.083,2.833s-0.666,3.75,0.25,5
		s4.999,4.667,3.666,5.917s-5.083-0.666-5.583,0.667s0.334,3.333,1.167,5.417s4.583,4.417,7.583,6.25s7.833,5.75,9.333,5.333
		s2.666-2.25,5.25-1.333s5,4.417,5.917,4.5s3.668,1.333,5.084,2s2.833,1.084,3.333,1.667s3.501,3.083,4.917,3.917
		s5.166,1.75,6.583,2.75s9.583,2,10.75,1.667s7.667-1.25,8-0.667s1.499,2.083,4.333,0.333s3.668-3.167,5.084-2.917
		s11.333,5.061,14.166,3.739s8-5.655,10.5-6.655s3.916-3.417,5.083-3.333s5.083,0.75,6.25,0.417s4.001-1.5,6.084,2.25
		s4.332,4.083,5.666,3.833s3.167-1.333,5.167,1.833s5.416,5.25,4.083,9.25s-6.167,9.167-7.25,10.417s-0.834,5.334,0.5,6.667
		s3.833-0.667,5.25,0s1.918,3.333,2.834,4.917s1.333,3.833,1.583,6.083s2.25,2.584,3,2.417s2.417,3.083,3.917,3.333
		s5.416-1.5,6.083-0.417s3.167,3.083,4.25,2.417s0.5-5.25,1-6.583s1.501-1.833,3.167-2.25s3.75,1.333,4.833,0.583
		s3.666-1.666,4.583-1.333s3.668,0,5.084-0.833s3.5-3.917,5.5-3s2.584,1.75,4,2.083s2.582,0.166,3.916,3.083s4.833,6.167,7.75,6.167
		s6.084-1.333,7.667-0.333s8.249,3.432,10.583,2.549s6.416-2.049,8-2.216s2.918-0.833,4.334-0.667s7.75-2.917,9.083-4
		s3.167,0.083,4.417-0.75s2.999-1.75,4.916-2.083s6.75-0.75,8.75-2.083s3.334-2.583,5.334-3.833s5.5-5.416,5.75-5.833
		s8.5-3.25,9.75-5.667s2-6.25,2.833-7.333s5.583-7.583,6.25-9.333s2.833-2.333,3.75-3.75s2.751-4.667,3.417-7.75
		s-0.583-12.167-2.833-17.5s-3.584-5.667-4.084-7.25s-1.25-3.917-2.083-5.25s-3.166-4.5-4.5-5.417s-3.084-2.095-1.417-4.089
		s7.666-5.911,10.333-7.411s6.083-3.25,6.75-5.75s-1.167-2.917-4.5-3.167s-5.75-1.417-7.25-1s-2.833,2.667-4.333,3.25
		s-4.75,0.583-4.75,0.583s0.083-4.083-1.417-5s-4.25-0.833-5.5-1.5s-2.999-2.167-0.916-3.167s6.083-1.917,7.333-3.083
		s6.167-4.583,8.667-6.333s5.584-4.917,7.5-3s-0.084,3.583-1.084,5.25s-1.332,3.417-0.666,4.167s-1.666,3-0.25,3.917
		s7.584-2.166,9.75-3.333s5.583-2.25,8.333-3.333s4.916-1.583,5.833-3.5s4.751-2.917,6.834-3.917s5.416-3.667,5.416-3.667
		s4.917,0.083,6.167-0.333s3.833-1,5.5-2.417s4.584-3.167,5.917-3.75s3.75-1.25,5.083-1.583s5.083-0.833,6-3.333
		s1.084-8.75,3.084-11.083s5.5-0.5,7.25-1.25s9.249-8.833,10.416-11.333s3.916-9,4.5-10.75s0.751-3-1.666-2.917s-10.75,1.25-14,3
		s-3.834,4.167-5.584,2.833s-4.666-4.417-5.333-5.917s-5.667-4.083-8.5-5.083s-9.083-2.917-11.083-3.083s-2.917-4.917-3.667-6.5
		s-2.083-3.75-3-5.667s-1.166-3.167-2.583-4.417s-4.084-3.917-4.667-4.667s-2.584-1.583-4.667-2.333s-3.833-1.25-7.083-1.833
		s-6.751-0.917-8.667-0.333s-4.334,1.167-6.75,1.167s-5.583,0-7.083,1.5s-3.749,3.75-1.583,4.667s2,3.667,0.75,4.417
		s-4.667,4.75-5.917,6.083s-2.5,3.583-2.25,4.667s-1,1.917-2.5,2.167s-5.667,2.583-7.25,2.333S1976.916,266.417,1976,270.25z"/>
	<path fill="#12335F" d="M1929.583,467.083c0,0-8.582,4.667-5.416,10.25s11.582,0.25,13.416-2.417s3.668-6.25,1.834-7.833
		S1929.583,467.083,1929.583,467.083z"/>
	<path fill="#12335F" d="M2001.25,440.833c0,0-2.5,5.25,0,9.25s3.251,5.083,4.167,4.583s5.5-10.667,5.75-12.167s3.167-10.5,0-11.25
		S2001.333,438.667,2001.25,440.833z"/>
</g>
</svg>
